# xmcd
#
# Track frame offsets: 
#        150
#        16099
#        32461
#        48365
#        66826
#        86993
#        101654
#        116400
#        133703
#        156086
#        171149
#        188400
#        203339
#        216547
#        235324
#        247512
#
# Disc length: 3494 seconds
#
# Revision: 1
# Processed by: cddbd v1.5.2PL0 Copyright (c) Steve Scherf et al.
# Submitted via: ExactAudioCopy v0.95a4
#
DISCID=c90da410
DTITLE=Mark Hummel - Wayback Machine
DYEAR=2020
DGENRE=Blues
TTITLE0=Flim Flam
TTITLE1=Hello Stranger
TTITLE2=So Much Trouble
TTITLE3=Cut That Out
TTITLE4=Road Dog
TTITLE5=Play with Your Poodle
TTITLE6=Breathtaking Blues
TTITLE7=Crazy About You
TTITLE8=Pepper Mama
TTITLE9=Gillum's Windy Blues
TTITLE10=Rag Mama Rag
TTITLE11=Good Gal
TTITLE12=Reefer Head Woman
TTITLE13=Five Long Years
TTITLE14=Say You Will
TTITLE15=Mean Old Frisco
EXTD=
EXTT0=
EXTT1=
EXTT2=
EXTT3=
EXTT4=
EXTT5=
EXTT6=
EXTT7=
EXTT8=
EXTT9=
EXTT10=
EXTT11=
EXTT12=
EXTT13=
EXTT14=
EXTT15=
PLAYORDER=
